<?xml version="1.0" encoding="UTF-8"?>
<svg width="512" height="128" viewBox="0 0 512 128" fill="none" xmlns="http://www.w3.org/2000/svg">
  <rect width="512" height="128" fill="white"/>
  <!-- QT Monogram -->
  <g>
    <circle cx="64" cy="64" r="44" fill="black"/>
    <path d="M64 40c13.255 0 24 10.745 24 24 0 13.255-10.745 24-24 24S40 77.255 40 64c0-13.255 10.745-24 24-24zm0 8c-8.837 0-16 7.163-16 16 0 8.837 7.163 16 16 16 3.055 0 5.907-.873 8.31-2.377l5.69 5.69 5.657-5.657-5.345-5.345C79.119 70.044 80 67.122 80 64c0-8.837-7.163-16-16-16z" fill="white"/>
    <rect x="60" y="44" width="8" height="40" rx="2" fill="white"/>
  </g>
  <!-- Wordmark -->
  <g>
    <text x="120" y="78" fill="#000" font-family="'Segoe UI', Roboto, Helvetica, Arial, sans-serif" font-size="48" font-weight="700" letter-spacing="1">
      QuickTill
    </text>
  </g>
</svg>